<svg xmlns="http://www.w3.org/2000/svg" viewBox="0 0 256.13 255.94"><defs><style>.cls-1{fill:#fff;}</style></defs><title>Asset 2</title><g id="Layer_2" data-name="Layer 2"><g id="Layer_1-2" data-name="Layer 1"><path class="cls-1" d="M59,19.8c0-3.8-.12-7,0-10.08a9.94,9.94,0,0,1,19.87-.31c.22,3.27,0,6.57,0,10.11H177c0-3-.06-5.94,0-8.87C177.18,4.39,181.5-.1,187.18,0s9.63,4.43,9.79,10.48c.07,2.82,0,5.65,0,9.31,2.82,0,5.4.09,8,0,28.43-1.17,51.52,22.55,51.16,51.45-.55,44.65-.13,89.31-.15,134,0,29.13-21.64,50.71-50.86,50.72q-77.24,0-154.48,0C21.75,255.91,0,234.22,0,205.46Q0,137.72,0,70c0-28.2,21.15-49.71,49.27-50.16C52.26,19.76,55.24,19.8,59,19.8ZM20,99v5.53Q20,154.73,20,205c0,18.4,12.61,31,31.1,31Q128,236,205,236c18.43,0,31-12.65,31-31.11q0-50.24,0-100.46V99Zm215.68-20.4C239.28,51.55,221,36.1,197,40.42c0,5.69,0,11.48,0,17.27,0,7.09-3.68,11.25-9.81,11.32-6.31.07-10.1-4.22-10.14-11.54,0-5.77,0-11.55,0-17.3H79c0,6.2,0,12,0,17.82-.07,6.86-4,11.09-10.16,11-5.95-.07-9.72-4.19-9.78-10.84-.06-6,0-11.91,0-17.77C31.72,35.67,16.07,55.73,20.69,78.56Z"/><path class="cls-1" d="M128,187c3.32,0,6.64-.11,10,0a9.94,9.94,0,0,1,.07,19.88c-6.8.2-13.62.22-20.41,0a9.93,9.93,0,0,1,.42-19.86C121.38,186.87,124.7,187,128,187Z"/><path class="cls-1" d="M69,147.94c-3.32,0-6.64.11-10,0A10,10,0,1,1,59.2,128q9.7-.21,19.42,0a10.22,10.22,0,0,1,10.24,10c0,5.36-4.57,9.72-10.39,9.89C75.32,148,72.16,147.94,69,147.94Z"/><path class="cls-1" d="M128,128c3.32,0,6.65-.12,10,0a9.94,9.94,0,0,1,0,19.88c-6.79.19-13.61.21-20.41,0a9.93,9.93,0,0,1,0-19.84C121.06,127.83,124.56,128,128,128Z"/><path class="cls-1" d="M186.69,147.92c-3.32,0-6.64.16-9.95,0a10.24,10.24,0,0,1-9.62-10.14,10.11,10.11,0,0,1,9.53-9.71c7-.21,13.94-.23,20.9,0a10,10,0,0,1,9.36,9.85,10.18,10.18,0,0,1-9.27,10C194,148.12,190.34,147.92,186.69,147.92Z"/><path class="cls-1" d="M69.21,187c3.32,0,6.65-.13,10,0a9.93,9.93,0,0,1,.24,19.84c-7,.26-14,.27-20.91,0A9.93,9.93,0,0,1,58.76,187C62.23,186.85,65.73,187,69.21,187Z"/><path class="cls-1" d="M187.22,187c3.32,0,6.65-.13,10,0a9.92,9.92,0,0,1,.35,19.83c-7,.27-13.95.27-20.91,0a10.12,10.12,0,0,1-9.5-10.24,10.23,10.23,0,0,1,9.65-9.6C180.24,186.84,183.74,187,187.22,187Z"/></g></g></svg>